<svg xmlns="http://www.w3.org/2000/svg" viewBox="0 0 64 64">
  <defs>
    <filter id="shadow"><feDropShadow dx="0" dy="2" stdDeviation="2" flood-opacity="0.4"/></filter>
  </defs>
  
  <g filter="url(#shadow)">
    <path d="M32,18 L4,40 L4,44 L32,38 Z" fill="#e8e8e8"/>
    <path d="M32,18 L60,40 L60,44 L32,38 Z" fill="#e8e8e8"/>
    <path d="M32,52 L20,58 L20,60 L32,56 Z" fill="#e8e8e8"/>
    <path d="M32,52 L44,58 L44,60 L32,56 Z" fill="#e8e8e8"/>
    <path d="M30,54 L32,62 L34,54 Z" fill="#d0d0d0"/>
    <ellipse cx="32" cy="34" rx="4" ry="24" fill="#fafafa" stroke="#c0c0c0" stroke-width="0.5"/>
    <ellipse cx="32" cy="12" rx="3" ry="3" fill="#3a4a5e"/>
    <!-- 4 engines -->
    <ellipse cx="14" cy="34" rx="1.8" ry="2.5" fill="#888"/>
    <ellipse cx="22" cy="36" rx="1.8" ry="2.5" fill="#888"/>
    <ellipse cx="42" cy="36" rx="1.8" ry="2.5" fill="#888"/>
    <ellipse cx="50" cy="34" rx="1.8" ry="2.5" fill="#888"/>
  </g>

</svg>