<svg xmlns="http://www.w3.org/2000/svg" viewBox="0 0 32 80">
  <defs>
    <filter id="ssh"><feDropShadow dx="0" dy="2" stdDeviation="1.5" flood-opacity="0.5"/></filter>
  </defs>
  <g filter="url(#ssh)">
    <!-- Hull -->
    <path d="M6,8 Q16,2 26,8 L26,72 L6,72 Z" fill="#f0f0f0" stroke="#888" stroke-width="0.5"/>
    <!-- Bridge / superstructure -->
    <rect x="8" y="60" width="16" height="10" fill="#fff" stroke="#aaa" stroke-width="0.3"/>
    <!-- Container stacks (colorful) -->
    <rect x="8" y="14" width="4" height="6" fill="#d44"/>
    <rect x="12" y="14" width="4" height="6" fill="#4a7"/>
    <rect x="16" y="14" width="4" height="6" fill="#48b"/>
    <rect x="20" y="14" width="4" height="6" fill="#e90"/>
    <rect x="8" y="20" width="4" height="6" fill="#48b"/>
    <rect x="12" y="20" width="4" height="6" fill="#d44"/>
    <rect x="16" y="20" width="4" height="6" fill="#e90"/>
    <rect x="20" y="20" width="4" height="6" fill="#4a7"/>
    <rect x="8" y="26" width="4" height="6" fill="#4a7"/>
    <rect x="12" y="26" width="4" height="6" fill="#48b"/>
    <rect x="16" y="26" width="4" height="6" fill="#d44"/>
    <rect x="20" y="26" width="4" height="6" fill="#888"/>
    <rect x="8" y="32" width="4" height="6" fill="#e90"/>
    <rect x="12" y="32" width="4" height="6" fill="#4a7"/>
    <rect x="16" y="32" width="4" height="6" fill="#48b"/>
    <rect x="20" y="32" width="4" height="6" fill="#d44"/>
    <rect x="8" y="38" width="4" height="6" fill="#48b"/>
    <rect x="12" y="38" width="4" height="6" fill="#e90"/>
    <rect x="16" y="38" width="4" height="6" fill="#4a7"/>
    <rect x="20" y="38" width="4" height="6" fill="#48b"/>
    <rect x="8" y="44" width="4" height="6" fill="#d44"/>
    <rect x="12" y="44" width="4" height="6" fill="#4a7"/>
    <rect x="16" y="44" width="4" height="6" fill="#e90"/>
    <rect x="20" y="44" width="4" height="6" fill="#888"/>
    <rect x="8" y="50" width="4" height="6" fill="#e90"/>
    <rect x="12" y="50" width="4" height="6" fill="#48b"/>
    <rect x="16" y="50" width="4" height="6" fill="#d44"/>
    <rect x="20" y="50" width="4" height="6" fill="#4a7"/>
  </g>
</svg>